# Blender 4.1.1
# www.blender.org
mtllib Macguffin.mtl
o Cube
v -0.031650 0.141399 0.076626
v -0.031650 0.141399 -0.081607
v 0.025802 0.141399 0.076626
v 0.025802 0.141399 -0.081607
v -0.029653 0.830241 0.074629
v -0.029653 0.830241 -0.079610
v 0.023805 0.830241 -0.079610
v 0.023805 0.830241 0.074629
v -0.044870 0.541537 -0.301886
v 0.039022 0.541537 -0.301886
v 0.039022 0.541537 0.296905
v -0.044870 0.541537 0.296905
v -0.044870 0.724479 -0.301886
v 0.039022 0.724479 -0.301886
v 0.039022 0.724479 0.296905
v -0.044870 0.724479 0.296905
v -0.044870 0.504912 0.089846
v -0.044870 0.541537 0.126471
v -0.044870 0.578162 0.089846
v -0.044870 0.541537 0.053221
v -0.044870 0.541537 -0.131452
v -0.044870 0.504912 -0.094827
v -0.044870 0.541537 -0.058202
v -0.044870 0.578162 -0.094827
v 0.039022 0.541537 0.126471
v 0.039022 0.504912 0.089846
v 0.039022 0.541537 0.053221
v 0.039022 0.578162 0.089846
v 0.039022 0.504912 -0.094827
v 0.039022 0.541537 -0.131452
v 0.039022 0.578162 -0.094827
v 0.039022 0.541537 -0.058202
v -0.044870 0.724479 0.126471
v -0.044870 0.761104 0.089846
v -0.044870 0.724479 0.053221
v -0.044870 0.687854 0.089846
v -0.044870 0.761104 -0.094827
v -0.044870 0.724479 -0.131452
v -0.044870 0.687854 -0.094827
v -0.044870 0.724479 -0.058202
v 0.039022 0.724479 -0.131452
v 0.039022 0.761104 -0.094827
v 0.039022 0.724479 -0.058202
v 0.039022 0.687854 -0.094827
v 0.039022 0.761104 0.089846
v 0.039022 0.724479 0.126471
v 0.039022 0.687854 0.089846
v 0.039022 0.724479 0.053221
v -0.044870 0.830241 0.089846
v -0.044870 0.830241 -0.094827
v 0.039022 0.830241 -0.094827
v 0.039022 0.830241 0.089846
v -0.009757 0.917567 0.054733
v -0.009757 0.917567 -0.059714
v 0.003909 0.917567 -0.059714
v 0.003909 0.917567 0.054733
v -0.029653 0.917567 0.074629
v -0.029653 0.917567 -0.079610
v 0.023805 0.917567 -0.079610
v 0.023805 0.917567 0.074629
v -0.009757 0.956138 0.054733
v -0.009757 0.956138 -0.059714
v 0.003909 0.956138 -0.059714
v 0.003909 0.956138 0.054733
v -0.014333 0.992424 0.093049
v -0.014333 0.992424 -0.098030
v 0.008485 0.992424 -0.098030
v 0.008485 0.992424 0.093049
v -0.044870 0.141399 -0.094827
v -0.044870 0.141399 0.089846
v 0.039022 0.141399 -0.094827
v 0.039022 0.141399 0.089846
v -0.018122 0.120838 -0.068079
v -0.018122 0.120838 0.063098
v 0.012274 0.120838 -0.068079
v 0.012274 0.120838 0.063098
v -0.031650 0.120838 -0.081607
v -0.031650 0.120838 0.076626
v 0.025802 0.120838 -0.081607
v 0.025802 0.120838 0.076626
v -0.018122 0.012318 -0.068079
v -0.018122 0.012318 0.063098
v 0.012274 0.012318 -0.068079
v 0.012274 0.012318 0.063098
vn -0.0000 -1.0000 -0.0000
vn -1.0000 -0.0000 -0.0000
vn 1.0000 -0.0000 -0.0000
vn -0.0000 1.0000 -0.0000
vn -0.0000 -0.0000 1.0000
vn -0.0000 -0.0000 -1.0000
vn -0.0000 -0.7071 -0.7071
vn -0.0000 -0.7071 0.7071
vn -0.0000 0.7071 -0.7071
vn -0.0000 0.7071 0.7071
vn 0.9921 -0.1251 -0.0000
vn -0.9921 -0.1251 -0.0000
vn -0.0000 -0.7261 0.6876
vn -0.0000 -0.7261 -0.6876
vt 0.625000 1.000000
vt 0.625000 0.750000
vt 0.625000 0.250000
vt 0.375000 0.000000
vt 0.602117 0.000000
vt 0.625000 0.049581
vt 0.625000 0.200419
vt 0.602117 0.250000
vt 0.375000 0.250000
vt 0.335605 0.517896
vt 0.335605 0.732104
vt 0.375000 0.500000
vt 0.602117 0.500000
vt 0.625000 0.549581
vt 0.625000 0.700419
vt 0.602117 0.750000
vt 0.375000 0.750000
vt 0.625000 0.500000
vt 0.625000 0.000000
vt 0.829654 0.729401
vt 0.670346 0.729401
vt 0.625000 0.049581
vt 0.602117 0.250000
vt 0.602117 0.500000
vt 0.602117 1.000000
vt 0.602117 0.750000
vt 0.375000 1.000000
vt 0.829654 0.520599
vt 0.875000 0.500000
vt 0.875000 0.750000
vt 0.670346 0.520599
vt 0.770363 0.702466
vt 0.729637 0.702466
vt 0.770363 0.547534
vt 0.729637 0.547534
vt 0.164395 0.517896
vt 0.164395 0.732104
vt 0.125000 0.750000
vt 0.125000 0.500000
vt 0.295291 0.536209
vt 0.295291 0.713791
vt 0.204709 0.536209
vt 0.204709 0.713790
s 0
f 18/1/1 25/2/1 11/2/1 12/1/1
f 21/3/2 24/3/2 39/3/2 38/3/2 13/3/2 9/3/2
f 25/2/3 28/2/3 47/2/3 46/2/3 15/2/3 11/2/3
f 70/4/2 17/5/2 20/6/2 23/7/2 22/8/2 69/9/2
f 4/10/3 3/11/3 80/11/3 79/10/3
f 71/12/3 29/13/3 32/14/3 27/15/3 26/16/3 72/17/3
f 38/3/4 41/18/4 14/18/4 13/3/4
f 33/19/2 36/19/2 19/19/2 18/19/2 12/19/2 16/19/2
f 41/18/3 44/18/3 31/18/3 30/18/3 10/18/3 14/18/3
f 30/18/1 21/3/1 9/3/1 10/18/1
f 5/20/5 8/21/5 60/21/5 57/20/5
f 45/2/3 48/15/3 43/14/3 42/18/3 51/18/3 52/2/3
f 46/2/4 33/1/4 16/1/4 15/2/4
f 12/1/5 11/2/5 15/2/5 16/1/5
f 10/18/6 9/3/6 13/3/6 14/18/6
f 34/1/5 45/2/5 52/2/5 49/1/5
f 42/18/6 37/3/6 50/3/6 51/18/6
f 24/3/2 23/7/2 20/22/2 19/19/2 36/19/2 35/6/2 40/7/2 39/3/2
f 69/9/6 22/23/6 29/24/6 71/12/6
f 37/3/2 40/7/2 35/22/2 34/19/2 49/19/2 50/3/2
f 28/2/3 27/15/3 32/14/3 31/18/3 44/18/3 43/14/3 48/15/3 47/2/3
f 17/5/2 18/19/2 19/19/2 20/6/2
f 21/3/2 22/3/2 23/7/2 24/3/2
f 25/2/3 26/2/3 27/15/3 28/2/3
f 29/24/3 30/18/3 31/18/3 32/14/3
f 33/19/2 34/19/2 35/19/2 36/19/2
f 37/3/2 38/3/2 39/3/2 40/7/2
f 41/18/3 42/18/3 43/14/3 44/18/3
f 45/2/3 46/2/3 47/2/3 48/15/3
f 21/3/7 30/18/7 29/24/7 22/23/7
f 25/2/8 18/1/8 17/25/8 26/26/8
f 37/3/9 42/18/9 41/18/9 38/3/9
f 45/2/10 34/1/10 33/1/10 46/2/10
f 72/17/5 26/26/5 17/25/5 70/27/5
f 5/20/4 6/28/4 50/29/4 49/30/4
f 6/28/4 7/31/4 51/18/4 50/29/4
f 7/31/4 8/21/4 52/2/4 51/18/4
f 8/21/4 5/20/4 49/30/4 52/2/4
f 53/32/5 56/33/5 64/33/5 61/32/5
f 7/31/6 6/28/6 58/28/6 59/31/6
f 8/21/3 7/31/3 59/31/3 60/21/3
f 6/28/2 5/20/2 57/20/2 58/28/2
f 53/32/4 54/34/4 58/28/4 57/20/4
f 54/34/4 55/35/4 59/31/4 58/28/4
f 55/35/4 56/33/4 60/21/4 59/31/4
f 56/33/4 53/32/4 57/20/4 60/21/4
f 64/33/11 63/35/11 67/35/11 68/33/11
f 55/35/6 54/34/6 62/34/6 63/35/6
f 56/33/3 55/35/3 63/35/3 64/33/3
f 54/34/2 53/32/2 61/32/2 62/34/2
f 67/35/4 66/34/4 65/32/4 68/33/4
f 62/34/12 61/32/12 65/32/12 66/34/12
f 61/32/13 64/33/13 68/33/13 65/32/13
f 63/35/14 62/34/14 66/34/14 67/35/14
f 2/36/1 1/37/1 70/38/1 69/39/1
f 4/10/1 2/36/1 69/39/1 71/12/1
f 3/11/1 4/10/1 71/12/1 72/17/1
f 1/37/1 3/11/1 72/17/1 70/38/1
f 75/40/3 76/41/3 84/41/3 83/40/3
f 1/37/2 2/36/2 77/36/2 78/37/2
f 3/11/5 1/37/5 78/37/5 80/11/5
f 2/36/6 4/10/6 79/10/6 77/36/6
f 73/42/1 74/43/1 78/37/1 77/36/1
f 75/40/1 73/42/1 77/36/1 79/10/1
f 76/41/1 75/40/1 79/10/1 80/11/1
f 74/43/1 76/41/1 80/11/1 78/37/1
f 81/42/1 83/40/1 84/41/1 82/43/1
f 74/43/2 73/42/2 81/42/2 82/43/2
f 76/41/5 74/43/5 82/43/5 84/41/5
f 73/42/6 75/40/6 83/40/6 81/42/6
